<svg xmlns="http://www.w3.org/2000/svg" width="200" height="200">
<g transform="translate(100,100)">
<g transform="translate(-2.2073732834813692e-14,80) scale(66.27416997969522 -66.27416997969522)">
<g stroke="#f00" stroke-opacity="0.5" stroke-width="0.05">
<line x1="0" y1="0" x2="-0.7071067811865475" y2="0.7071067811865476"/>
<line x1="-0.7071067811865475" y1="0.7071067811865476" x2="-0.7071067811865474" y2="1.7071067811865475"/>
<line x1="-0.7071067811865474" y1="1.7071067811865475" x2="3.3306690738754696e-16" y2="2.414213562373095"/>
<line x1="3.3306690738754696e-16" y1="2.414213562373095" x2="0.707106781186548" y2="1.7071067811865475"/>
<line x1="0.707106781186548" y1="1.7071067811865475" x2="0.7071067811865481" y2="0.7071067811865476"/>
<line x1="0.7071067811865481" y1="0.7071067811865476" x2="6.661338147750939e-16" y2="0"/>
</g>
<g stroke="#f80" stroke-opacity="0.5" stroke-width="0.05">
<line x1="6.661338147750939e-16" y1="0" x2="0" y2="0"/>
</g>
<g fill="#123" fill-opacity="0.5">
<circle cx="0" cy="0" r="0.1"/>
<circle cx="-0.7071067811865475" cy="0.7071067811865476" r="0.1"/>
<circle cx="-0.7071067811865474" cy="1.7071067811865475" r="0.1"/>
<circle cx="3.3306690738754696e-16" cy="2.414213562373095" r="0.1"/>
<circle cx="0.707106781186548" cy="1.7071067811865475" r="0.1"/>
<circle cx="0.7071067811865481" cy="0.7071067811865476" r="0.1"/>
<circle cx="6.661338147750939e-16" cy="0" r="0.1"/>
</g>
</g>
</g>
</svg>