<svg xmlns="http://www.w3.org/2000/svg" width="200" height="200">
<g transform="translate(100,100)">
<g transform="translate(0,34.64101615137754) scale(80 -80)">
<g stroke="#f00" stroke-opacity="0.5" stroke-width="0.05">
<line x1="0" y1="0" x2="0.5000000000000001" y2="0.8660254037844386"/>
<line x1="0.5000000000000001" y1="0.8660254037844386" x2="1" y2="-1.1102230246251565e-16"/>
<line x1="1" y1="-1.1102230246251565e-16" x2="0" y2="1.1442377452219667e-17"/>
<line x1="0" y1="1.1442377452219667e-17" x2="-1" y2="-1.1102230246251565e-16"/>
<line x1="-1" y1="-1.1102230246251565e-16" x2="-0.5000000000000001" y2="0.8660254037844386"/>
<line x1="-0.5000000000000001" y1="0.8660254037844386" x2="0" y2="0"/>
</g>
<g stroke="#f80" stroke-opacity="0.5" stroke-width="0.05">
<line x1="0" y1="0" x2="0" y2="0"/>
</g>
<g fill="#0d0" fill-opacity="0.5">
<circle cx="0" cy="0" r="0.1"/>
<circle cx="0.5000000000000001" cy="0.8660254037844386" r="0.1"/>
<circle cx="1" cy="-1.1102230246251565e-16" r="0.1"/>
<circle cx="0" cy="1.1442377452219667e-17" r="0.1" fill="#08f"/>
<circle cx="-1" cy="-1.1102230246251565e-16" r="0.1"/>
<circle cx="-0.5000000000000001" cy="0.8660254037844386" r="0.1"/>
<circle cx="0" cy="0" r="0.1"/>
</g>
</g>
</g>
</svg>