<svg xmlns="http://www.w3.org/2000/svg" width="200" height="200">
<g transform="translate(100,100)">
<g transform="translate(-53.333333333333336,46.188021535170044) scale(53.333333333333314 -53.333333333333314)">
<g stroke="#f00" stroke-opacity="0.5" stroke-width="0.05">
<line x1="0" y1="0" x2="-0.4999999999999998" y2="0.8660254037844387"/>
<line x1="-0.4999999999999998" y1="0.8660254037844387" x2="5.551115123125783e-16" y2="1.7320508075688772"/>
<line x1="5.551115123125783e-16" y1="1.7320508075688772" x2="1.0000000000000004" y2="1.732050807568877"/>
<line x1="1.0000000000000004" y1="1.732050807568877" x2="2.0000000000000004" y2="1.7320508075688772"/>
<line x1="2.0000000000000004" y1="1.7320508075688772" x2="2.500000000000001" y2="0.8660254037844387"/>
<line x1="2.500000000000001" y1="0.8660254037844387" x2="2.000000000000001" y2="0"/>
</g>
<g stroke="#f80" stroke-opacity="0.5" stroke-width="0.05">
<line x1="2.000000000000001" y1="0" x2="0" y2="0"/>
</g>
<g fill="#0d0" fill-opacity="0.5">
<circle cx="0" cy="0" r="0.1"/>
<circle cx="-0.4999999999999998" cy="0.8660254037844387" r="0.1"/>
<circle cx="5.551115123125783e-16" cy="1.7320508075688772" r="0.1"/>
<circle cx="1.0000000000000004" cy="1.732050807568877" r="0.1" fill="#08f"/>
<circle cx="2.0000000000000004" cy="1.7320508075688772" r="0.1"/>
<circle cx="2.500000000000001" cy="0.8660254037844387" r="0.1"/>
<circle cx="2.000000000000001" cy="0" r="0.1"/>
</g>
</g>
</g>
</svg>