<svg xmlns="http://www.w3.org/2000/svg" width="200" height="200">
<g transform="translate(100,100)">
<g transform="translate(-80,40.00000000000001) scale(80.00000000000001 -80.00000000000001)">
<g stroke="#f00" stroke-opacity="0.5" stroke-width="0.05">
<line x1="0" y1="0" x2="6.123233995736766e-17" y2="1"/>
<line x1="6.123233995736766e-17" y1="1" x2="1" y2="1"/>
<line x1="1" y1="1" x2="0.9999999999999998" y2="0"/>
<line x1="0.9999999999999998" y1="0" x2="0.9999999999999996" y2="1"/>
<line x1="0.9999999999999996" y1="1" x2="1.9999999999999996" y2="1"/>
<line x1="1.9999999999999996" y1="1" x2="1.9999999999999996" y2="0"/>
</g>
<g stroke="#f80" stroke-opacity="0.5" stroke-width="0.05">
<line x1="1.9999999999999996" y1="0" x2="0" y2="0"/>
</g>
<g fill="#0d0" fill-opacity="0.5">
<circle cx="0" cy="0" r="0.1"/>
<circle cx="6.123233995736766e-17" cy="1" r="0.1"/>
<circle cx="1" cy="1" r="0.1"/>
<circle cx="0.9999999999999998" cy="0" r="0.1" fill="#08f"/>
<circle cx="0.9999999999999996" cy="1" r="0.1"/>
<circle cx="1.9999999999999996" cy="1" r="0.1"/>
<circle cx="1.9999999999999996" cy="0" r="0.1"/>
</g>
</g>
</g>
</svg>