<svg xmlns="http://www.w3.org/2000/svg" width="200" height="200">
<g transform="translate(100,100)">
<g transform="translate(-2.5121479338940402e-14,23.431457505076192) scale(113.13708498984761 -113.13708498984761)">
<g stroke="#f00" stroke-opacity="0.5" stroke-width="0.05">
<line x1="0" y1="0" x2="0.7071067811865476" y2="0.7071067811865475"/>
<line x1="0.7071067811865476" y1="0.7071067811865475" x2="0.7071067811865477" y2="-0.29289321881345254"/>
<line x1="0.7071067811865477" y1="-0.29289321881345254" x2="2.220446049250313e-16" y2="0.41421356237309503"/>
<line x1="2.220446049250313e-16" y1="0.41421356237309503" x2="-0.7071067811865472" y2="-0.29289321881345254"/>
<line x1="-0.7071067811865472" y1="-0.29289321881345254" x2="-0.7071067811865471" y2="0.7071067811865475"/>
<line x1="-0.7071067811865471" y1="0.7071067811865475" x2="4.440892098500626e-16" y2="0"/>
</g>
<g stroke="#f80" stroke-opacity="0.5" stroke-width="0.05">
<line x1="4.440892098500626e-16" y1="0" x2="0" y2="0"/>
</g>
<g fill="#0d0" fill-opacity="0.5">
<circle cx="0" cy="0" r="0.1"/>
<circle cx="0.7071067811865476" cy="0.7071067811865475" r="0.1"/>
<circle cx="0.7071067811865477" cy="-0.29289321881345254" r="0.1"/>
<circle cx="2.220446049250313e-16" cy="0.41421356237309503" r="0.1" fill="#08f"/>
<circle cx="-0.7071067811865472" cy="-0.29289321881345254" r="0.1"/>
<circle cx="-0.7071067811865471" cy="0.7071067811865475" r="0.1"/>
<circle cx="4.440892098500626e-16" cy="0" r="0.1"/>
</g>
</g>
</g>
</svg>