<svg xmlns="http://www.w3.org/2000/svg" width="200" height="500">
<g transform="translate(50,50)" font-family="sans-serif">
<g stroke="#888" stroke-width="2">
<line x1="0" y1="-25" x2="0" y2="600"/>
</g>
<g stroke="#f80" stroke-width="0.5">
<line x1="50.5" y1="0" x2="50.5" y2="600"/>
<line x1="100.5" y1="0" x2="100.5" y2="600"/>
</g>
<g font-size="10px" text-anchor="middle" dominant-baseline="middle">
<text x="0" y="-32" fill="#888" font-size="14px">i</text>
<text x="50.5" y="-7" fill="#f80">1</text>
<text x="100.5" y="-7" fill="#f80">2</text>
</g>
<g stroke="#f80" stroke-width="2">
<line x1="-25" y1="0" x2="150" y2="0"/>
</g>
<g stroke="#888" stroke-width="0.5">
<line x1="0" y1="12.5" x2="150" y2="12.5"/>
<line x1="0" y1="24.5" x2="150" y2="24.5"/>
<line x1="0" y1="36.5" x2="150" y2="36.5"/>
<line x1="0" y1="48.5" x2="150" y2="48.5"/>
<line x1="0" y1="60.5" x2="150" y2="60.5"/>
<line x1="0" y1="72.5" x2="150" y2="72.5"/>
<line x1="0" y1="84.5" x2="150" y2="84.5"/>
<line x1="0" y1="96.5" x2="150" y2="96.5"/>
<line x1="0" y1="108.5" x2="150" y2="108.5"/>
<line x1="0" y1="120.5" x2="150" y2="120.5"/>
<line x1="0" y1="132.5" x2="150" y2="132.5"/>
<line x1="0" y1="144.5" x2="150" y2="144.5"/>
<line x1="0" y1="156.5" x2="150" y2="156.5"/>
<line x1="0" y1="168.5" x2="150" y2="168.5"/>
<line x1="0" y1="180.5" x2="150" y2="180.5"/>
<line x1="0" y1="192.5" x2="150" y2="192.5"/>
<line x1="0" y1="204.5" x2="150" y2="204.5"/>
<line x1="0" y1="216.5" x2="150" y2="216.5"/>
<line x1="0" y1="228.5" x2="150" y2="228.5"/>
<line x1="0" y1="240.5" x2="150" y2="240.5"/>
<line x1="0" y1="252.5" x2="150" y2="252.5"/>
<line x1="0" y1="264.5" x2="150" y2="264.5"/>
<line x1="0" y1="276.5" x2="150" y2="276.5"/>
<line x1="0" y1="288.5" x2="150" y2="288.5"/>
<line x1="0" y1="300.5" x2="150" y2="300.5"/>
<line x1="0" y1="312.5" x2="150" y2="312.5"/>
<line x1="0" y1="324.5" x2="150" y2="324.5"/>
<line x1="0" y1="336.5" x2="150" y2="336.5"/>
<line x1="0" y1="348.5" x2="150" y2="348.5"/>
<line x1="0" y1="360.5" x2="150" y2="360.5"/>
<line x1="0" y1="372.5" x2="150" y2="372.5"/>
<line x1="0" y1="384.5" x2="150" y2="384.5"/>
<line x1="0" y1="396.5" x2="150" y2="396.5"/>
<line x1="0" y1="408.5" x2="150" y2="408.5"/>
<line x1="0" y1="420.5" x2="150" y2="420.5"/>
<line x1="0" y1="432.5" x2="150" y2="432.5"/>
<line x1="0" y1="444.5" x2="150" y2="444.5"/>
</g>
<g font-size="10px" text-anchor="end" dominant-baseline="middle">
<text x="-32" y="0" fill="#f80" font-size="14px">t</text>
<text x="-7" y="12" fill="#888">1</text>
<text x="-7" y="24" fill="#888">2</text>
<text x="-7" y="36" fill="#888">3</text>
<text x="-7" y="48" fill="#888">4</text>
<text x="-7" y="60" fill="#888">5</text>
<text x="-7" y="72" fill="#888">6</text>
<text x="-7" y="84" fill="#888">7</text>
<text x="-7" y="96" fill="#888">8</text>
<text x="-7" y="108" fill="#888">9</text>
<text x="-7" y="120" fill="#888">10</text>
<text x="-7" y="132" fill="#888">11</text>
<text x="-7" y="144" fill="#888">12</text>
<text x="-7" y="156" fill="#888">13</text>
<text x="-7" y="168" fill="#888">14</text>
<text x="-7" y="180" fill="#888">15</text>
<text x="-7" y="192" fill="#888">16</text>
<text x="-7" y="204" fill="#888">17</text>
<text x="-7" y="216" fill="#888">18</text>
<text x="-7" y="228" fill="#888">19</text>
<text x="-7" y="240" fill="#888">20</text>
<text x="-7" y="252" fill="#888">21</text>
<text x="-7" y="264" fill="#888">22</text>
<text x="-7" y="276" fill="#888">23</text>
<text x="-7" y="288" fill="#888">24</text>
<text x="-7" y="300" fill="#888">25</text>
<text x="-7" y="312" fill="#888">26</text>
<text x="-7" y="324" fill="#888">27</text>
<text x="-7" y="336" fill="#888">28</text>
<text x="-7" y="348" fill="#888">29</text>
<text x="-7" y="360" fill="#888">30</text>
<text x="-7" y="372" fill="#888">31</text>
<text x="-7" y="384" fill="#888">32</text>
<text x="-7" y="396" fill="#888">33</text>
<text x="-7" y="408" fill="#888">34</text>
<text x="-7" y="420" fill="#888">35</text>
<text x="-7" y="432" fill="#888">36</text>
<text x="-7" y="444" fill="#888">37</text>
</g>
<g stroke="#123" fill="none" stroke-width="2">
<polyline points="-136.60254037844385,0 -113.92915953864953,1.2000000000000002 -91.74161617933763,2.4000000000000004 -70.26319509995326,3.6000000000000005 -49.67040385528654,4.800000000000001 -30.09826816952692,6 -11.64552199835277,7.199999999999999 5.6204481088087626,8.399999999999999 21.658994309698375,9.6 36.451986153998405,10.799999999999999 50.00000000000002,11.999999999999998 62.318922017920706,13.2 73.43695332636918,14.399999999999999 83.3919962753897,15.600000000000001 92.22939498029686,16.8 100.00000000000004,18.000000000000004 106.75852580920231,19.200000000000003 112.56216986372803,20.400000000000006 117.46946316183755,21.600000000000005 121.53932392738258,22.800000000000008 124.83028813327444,24.000000000000007 127.39989286277068,25.200000000000006 129.30419084006414,26.400000000000006 130.59737675893203,27.60000000000001 131.33150823731208,28.80000000000001 131.556306287819,30.00000000000001 131.31902209727605,31.20000000000001 130.66435864228995,32.40000000000001 129.6344372312889,33.600000000000016 128.26880046065656,34.80000000000001 126.60444431189775,36.000000000000014 124.67587320875937,37.20000000000002 122.51517280977939,38.40000000000002 120.15209614519651,39.60000000000002 117.61415942981219,40.80000000000002 114.92674450711893,42.00000000000002 112.11320541597951,43.200000000000024 109.19497702976551,44.40000000000002 106.1916841086362,45.60000000000002 103.12124943721193,46.800000000000026 99.99999999999991,48.00000000000002 96.84277038249205,49.20000000000002 93.66300278299119,50.40000000000001 90.47284318434934,51.60000000000001 87.2832333706434,52.800000000000004 84.10399858552384,54 80.94393072014634,55.199999999999996 77.81086699236674,56.39999999999999 74.71176413793856,57.59999999999999 71.65276818114353,58.79999999999998 68.6392798885897,59.99999999999998 65.67601603756515,61.199999999999974 62.76706665078644,62.39999999999997 59.9159483638868,63.599999999999966 57.1256541016114,64.79999999999995 54.3986992443221,65.99999999999996 51.737164468821625,67.19999999999996 49.14273544733598,68.39999999999995 46.616739586264885,69.59999999999994 44.1601799824975,70.79999999999994 41.77376677004132,71.99999999999994 39.45794602376257,73.19999999999993 37.21292638042766,74.39999999999992 35.038703530183426,75.59999999999992 32.93508272429374,76.79999999999993 30.901699437494866,77.99999999999991 28.93803831586137,79.1999999999999 27.043450533667556,80.3999999999999 25.217169675468632,81.59999999999991 23.45832625254832,82.7999999999999 21.765960956042818,83.99999999999989 20.139036742469084,85.19999999999989 18.576449841088095,86.39999999999989 17.077039766529612,87.59999999999988 15.639598414400634,88.79999999999987 14.262878312198335,89.99999999999987 12.945600092748787,91.19999999999987 11.686459252584802,92.39999999999986 10.484132253162205,93.59999999999985 9.337282018572978,94.79999999999986 8.244562879446926,95.99999999999986 7.204625009021159,97.19999999999985 6.216118393891157,98.39999999999984 5.277696378727081,99.59999999999984 4.38801882122708,100.79999999999984 3.5457548907814274,101.99999999999983 2.749585541716304,103.19999999999982 1.9982056895710754,104.39999999999982 1.2903261166186009,105.59999999999982 0.6246751307601439,106.79999999999981 8.881784197001252e-14,107.9999999999998 -0.5849318170781159,109.1999999999998 -1.1313316260625372,110.3999999999998 -1.6403886194437223,111.5999999999998 -2.113269151489461,112.79999999999978 -2.5511161507297486,113.99999999999979 -2.955048656719783,115.19999999999979 -3.326161468858979,116.39999999999978 -3.6655248960671183,117.59999999999977 -3.9741845970621026,118.79999999999977 -4.253161501853786,119.99999999999977 -4.503451805868474,121.19999999999976 -4.726027028857416,122.39999999999975 -4.921834131420488,123.59999999999975 -5.091795682601729,124.79999999999976 -5.2368100725877165,125.99999999999974 -5.357751765068375,127.19999999999973 -5.455471584304872,128.39999999999975 -5.53079703239614,129.59999999999974 -5.584532632645156,130.79999999999973 -5.617460295301635,131.99999999999972 -5.6303397023045765,133.1999999999997 -5.623908707962933,134.39999999999972 -5.598883752805084,135.5999999999997 -5.555960288092376,136.7999999999997 -5.49581320873711,137.99999999999972 -5.419097292588271,139.1999999999997 -5.326447644252474,140.3999999999997 -5.218480141805603,141.59999999999968 -5.09579188492113,142.79999999999967 -4.958961643096915,143.9999999999997 -4.808550302806958,145.19999999999968 -4.645101312532606,146.39999999999966 -4.469141124749032,147.59999999999968 -4.281179634049225,148.79999999999967 -4.08171061068826,149.99999999999966 -3.871212128919177,151.19999999999965 -3.650146989574987,152.39999999999964 -3.418963136424158,153.59999999999965 -3.17809406589592,154.79999999999964 -2.9279592298320667,155.99999999999963 -2.668964430977494,157.19999999999965 -2.4015022109723394,158.39999999999964 -2.125952230653483,159.59999999999962 -1.8426816425143655,160.7999999999996 -1.5520454552087393,161.9999999999996 -1.2543868900175004,163.19999999999962 -0.9500377292269047,164.3999999999996 -0.6393186563941611,165.5999999999996 -0.3225395884986826,166.7999999999996 -9.992007221626409e-14,167.9999999999996 0.328010761157671,169.1999999999996 0.6612131655408193,170.39999999999958 0.9993372021471547,171.59999999999957 1.3421220861713268,172.79999999999959 1.6893159745185349,173.99999999999957 2.040675688961746,175.19999999999956 2.395966446829245,176.39999999999958 2.7549615991013243,177.59999999999957 3.117442375789603,178.79999999999956 3.4831976384667285,179.99999999999955 3.852023639810098,181.19999999999953 4.223723790019784,182.39999999999955 4.598108429968217,183.59999999999954 4.974994610937067,184.79999999999953 5.354205880795337,185.99999999999955 5.735572076471829,187.19999999999953 6.11892912257459,188.39999999999952 6.5041188360100755,189.5999999999995 6.89098873645545,190.7999999999995 7.279391862537398,191.99999999999952 7.669186593572707,193.1999999999995 8.060236476726645,194.39999999999952 8.45241005944718,195.59999999999954 8.845580727034019,196.79999999999956 9.239626545204638,197.99999999999957 9.634430107520004,199.1999999999996 10.02987838753635,200.3999999999996 10.425862595550756,201.59999999999962 10.822278039811179,202.79999999999964 11.219023992063304,203.99999999999966 11.61600355731085,205.19999999999968 12.013123547666321,206.3999999999997 12.410294360173364,207.5999999999997 12.807429858484532,208.79999999999973 13.204447258279705,209.99999999999974 13.601267016314884,211.19999999999976 13.997812722991975,212.39999999999978 14.394010998344275,213.5999999999998 14.789791391334123,214.7999999999998 15.185086282362425,215.99999999999983 15.579830788891746,217.19999999999985 15.97396267408812,218.39999999999986 16.367422258388086,219.59999999999988 16.760152333901505,220.7999999999999 17.152098081561633,221.99999999999991 17.54320699093761,223.19999999999993 17.933428782625928,224.39999999999995 18.322715333140916,225.59999999999997 18.711020602225258,226.79999999999998 19.098300562505276,228 19.484513131416172,229.20000000000002 19.869618105326797,230.40000000000003 20.253577095793425,231.60000000000005 20.63635346787549,232.80000000000007 21.01791228044796,234.00000000000009 21.39822022844656,235.2000000000001 21.777245586984712,236.40000000000012 22.15495815728195,237.60000000000014 22.53132921434661,238.80000000000015 22.90633145635636,240.00000000000017 23.279938955682084,241.2000000000002 23.65212711150295,242.4000000000002 24.022872603961,243.60000000000022 24.39215334980675,244.80000000000024 24.75994845948662,246.00000000000026 25.12623819562717,247.20000000000027 25.491003932870303,248.4000000000003 25.854228119016177,249.6000000000003 26.215894237431925,250.80000000000032 26.575986770685034,252.00000000000034 26.934491165362207,253.20000000000036 27.29139379803518,254.40000000000038 27.646681942336564,255.6000000000004 28.000343737110295,256.8000000000004 28.3523681556011,258.00000000000045 28.702744975650234,259.20000000000044 29.051464750864703,260.40000000000043 29.398518782728512,261.6000000000005 29.743899093624933,262.8000000000005 30.08759840074199,264.0000000000005 30.429610090830327,265.2000000000005 30.769928195787934,266.40000000000055 31.10854736904354,267.6000000000006 31.44546286271429,268.8000000000006 31.780670505510756,270.00000000000057 32.1141666813671,271.2000000000006 32.445948308771996,272.40000000000066 32.776012820777154,273.60000000000065 33.10435814566292,274.80000000000064 33.430982688238366,276.0000000000007 33.75588531175618,277.2000000000007 34.079065320422394,278.4000000000007 34.40052244248141,279.6000000000007 34.72025681385802,280.80000000000075 35.03826896233833,282.0000000000008 35.35455979227249,283.2000000000008 35.66913056978173,284.4000000000008 35.98198290845421,285.6000000000008 36.29311875551351,286.80000000000086 36.6025403784441,288.00000000000085 36.910250352060146,289.20000000000084 37.216251546002454,290.4000000000009 37.52054711264992,291.60000000000093 37.82314047543224,292.8000000000009 38.12403531753152,294.0000000000009 38.42323557095881,295.20000000000095 38.72074540599487,296.400000000001 39.016569220983186,297.600000000001 39.31071163246324,298.800000000001 39.60317746563351,300.000000000001 39.893971745134024,301.20000000000107 40.183099686137545,302.40000000000106 40.47056668573939,303.60000000000105 40.756378314637054,304.8000000000011 41.04054030908958,306.00000000000114 41.323058563148344,307.2000000000011 41.60393912114923,308.4000000000011 41.883188170459896,309.60000000000116 42.16081203447205,310.8000000000012 42.43681716583164,312.0000000000012 42.711210139899414,313.2000000000012 42.98399764843436,314.4000000000012 43.25518649349258,315.6000000000013 43.52478358153527,316.80000000000126 43.79279591773803,318.00000000000125 44.05923060049688,319.2000000000013 44.32409481612257,320.40000000000134 44.58739583371856,321.60000000000133 44.849141000236074,322.8000000000013 45.109337735701324,324.00000000000136 45.367993528608345,325.2000000000014 45.625115931472614,326.4000000000014 45.880712556541056,327.6000000000014 46.13479107165169,328.80000000000143 46.38735919623975,330.0000000000015 46.63842469748496,331.20000000000147 46.88799538659497,332.40000000000146 47.136079115221484,333.6000000000015 47.38268377200409,334.80000000000155 47.62781727923796,336.00000000000153 47.87148758966161,337.2000000000015 48.11370268336053,338.40000000000157 48.354470564783156,339.6000000000016 48.59379925986568,340.8000000000016 48.831696813261715,342.0000000000016 49.068171285674,343.20000000000164 49.30323075128472,344.4000000000017 49.5368832952811,345.60000000000167 49.769137011473006,346.80000000000166 50.000000000000355,348.0000000000017 50.22948036512641,349.20000000000175 50.457586213115334,350.40000000000174 50.68432565019003,351.6000000000017 50.90970678056881,352.8000000000018 51.133737704577456,354.0000000000018 51.35642651683495,355.2000000000018 51.57778130450996,356.4000000000018 51.797810145646,357.60000000000184 52.01652110755304,358.8000000000019 52.2339222452635,360.0000000000019 52.450021600050164,361.20000000000186 52.66482719800458,362.4000000000019 52.878347048673255,363.60000000000196 53.09058914375068,364.80000000000194 53.30156145582631,366.00000000000193 53.51127193718429,367.200000000002 53.71972851865474,368.400000000002 53.92693910851347,369.600000000002 54.13291159142983,370.800000000002 54.33765382746083,372.00000000000205 54.54117365108928,373.2000000000021 54.743478870305594,374.4000000000021 54.944577265731056,375.60000000000207 55.14447658978143,376.8000000000021 55.34318456586933,378.00000000000216 55.54070888764495,379.20000000000215 55.73705721827207,380.40000000000214 55.932237189740775,381.6000000000022 56.12625640221268,382.8000000000022 56.31912242340036,384.0000000000022 56.51084278797772,385.2000000000022 56.701424997021455,386.40000000000225 56.890876517482205,387.6000000000023 57.07920478168435,388.8000000000023 57.26641718685356,390.0000000000023 57.45252109467096,391.2000000000023 57.63752383085361,392.40000000000236 57.82143268475939,393.60000000000235 58.00425490901658,394.80000000000234 58.185997719176406,396.0000000000024 58.36666829338812,397.20000000000243 58.546273772095915,398.4000000000024 58.724821257756886,399.6000000000024 58.90231781457913,400.80000000000246 59.07877046827926,402.0000000000025 59.25418620585913,403.2000000000025 59.42857197540036,404.4000000000025 59.60193468587681,405.6000000000025 59.77428120698375,406.80000000000257 59.94561836898327,408.00000000000256 60.11595296256586,409.20000000000255 60.28529173872678,410.4000000000026 60.453641408657035,411.60000000000264 60.62100864364911,412.8000000000026 60.787400075015185,414.0000000000026 60.95282229401977,415.20000000000266 61.117281851823854,416.4000000000027 61.280785259441714,417.6000000000027 61.44333898770958,418.8000000000027 61.604949467265115,420.00000000000273 61.76562308853821,421.2000000000028 61.92536620175171,422.40000000000276 62.08418511693283,423.60000000000275 62.242086103933595,424.8000000000028 62.399075392460944,426.00000000000284 62.55515917211558,427.20000000000283 62.710343592439635,428.4000000000028 62.86463476297213,429.60000000000286 63.01803875331302,430.8000000000029 63.17056159319399,432.0000000000029 63.32220927255736,433.2000000000029 63.47298774164152,434.40000000000293 63.622902911072956,435.600000000003 63.7719606519653,436.80000000000297 63.92016679602387,438.00000000000296 64.06752713565655,439.200000000003 64.21404742409011,440.40000000000305 64.35973337549198,441.60000000000304 64.50459066509735,442.800000000003 64.64862492934084,444.00000000000307 64.79184176599331,445.2000000000031 64.93424673430303,446.4000000000031 65.0758453551408,447.6000000000031 65.21664311114992,448.80000000000314 65.35664544689924,450.0000000000032 65.49585776904065,451.2000000000032 65.63428544646955,452.40000000000316 65.77193381048893,453.6000000000032 65.90880815497681,454.80000000000325 66.04491373655641,456.00000000000324 66.18025577476925,457.20000000000323 66.31483945225125,458.4000000000033 66.44866991491098,459.6000000000033 66.58175227211063,460.8000000000033 66.71409159684939,462.0000000000033 66.84569292594837,463.20000000000334 66.97656126023846,464.4000000000034 67.10670156474916,465.6000000000034 67.23611876890013,466.80000000000337 67.36481776669343,468.0000000000034 67.49280341690813,469.20000000000346 67.62008054329605,470.40000000000344 67.74665393477865,471.60000000000343 67.8725283456455,472.8000000000035 67.99770849575363,474.0000000000035 68.12219907072833,475.2000000000035 68.24600472216424,476.4000000000035 68.36913006782794,477.60000000000355 68.49157969186093,478.8000000000036"/>
</g>
<g fill="#07d" font-size="10px" text-start="start" dominant-baseline="hanging">
<circle cx="-136.60254037844385" cy="0" r="3"/>
<text x="-133.60254037844385" y="3">0</text>
<circle cx="3.3306690738754696e-14" cy="8" r="3"/>
<text x="3.0000000000000333" y="11">1/2</text>
<circle cx="50.00000000000002" cy="12" r="3"/>
<text x="53.00000000000002" y="15">5/7</text>
<circle cx="100.00000000000004" cy="18" r="3"/>
<text x="103.00000000000004" y="21">1</text>
<circle cx="130.90169943749476" cy="28" r="3"/>
<text x="133.90169943749476" y="31">7/5</text>
<circle cx="99.99999999999997" cy="48" r="3"/>
<text x="102.99999999999997" y="51">2</text>
<circle cx="49.99999999999992" cy="68" r="3"/>
<text x="52.99999999999992" y="71">17/7</text>
<circle cx="0" cy="108" r="3"/>
<text x="3" y="111">3</text>
<circle cx="2.220446049250313e-14" cy="168" r="3"/>
<text x="3.000000000000022" y="171">7/2</text>
<circle cx="50.000000000000014" cy="348" r="3"/>
<text x="53.000000000000014" y="351">29/7</text>
</g>
</g>
</svg>